<?xml version="1.0" encoding="UTF-8"?><svg id="Layer_2" xmlns="http://www.w3.org/2000/svg" xmlns:xlink="http://www.w3.org/1999/xlink" viewBox="0 0 1190.75 350"><defs><style>.cls-1{fill:#fff;}.cls-2{fill:#87d0dc;}.cls-3{fill:#008aab;}.cls-4{fill:#2fb9cc;}.cls-5{fill:#00a2bc;}.cls-6{clip-path:url(#clippath);}.cls-7{fill:none;}</style><clipPath id="clippath"><circle class="cls-7" cx="175.6" cy="175" r="175"/></clipPath></defs><g id="Layer_1-2"><g><g class="cls-6"><g><path class="cls-5" d="M93.89,203.73c101.26,11.85,189.3,66.92,245.2,146.27h10.91V0H203.37c-12.52,80.18-52.26,151.33-109.48,203.73Z"/><path class="cls-2" d="M93.89,203.73c-27.6,25.27-59.26,46.18-93.89,61.63v84.65H339.09c-55.9-79.35-143.94-134.42-245.2-146.27Z"/><path class="cls-3" d="M93.89,203.73C151.1,151.33,190.84,80.18,203.37,0H0V205.28c17.21-2.6,34.83-3.95,52.77-3.95,13.91,0,27.64,.82,41.13,2.4Z"/><path class="cls-4" d="M52.77,201.33c-17.94,0-35.56,1.35-52.77,3.95v60.07c34.63-15.45,66.3-36.35,93.89-61.63-13.49-1.58-27.21-2.4-41.13-2.4Z"/></g></g><g><path class="cls-1" d="M340.93,205.91c-2.76,0-5-2.24-5-5v-51.82c0-2.76,2.24-5,5-5s5,2.24,5,5v51.82c0,2.76-2.24,5-5,5Z"/><path class="cls-1" d="M9.07,193.09c-2.76,0-5-2.24-5-5v-26.17c0-2.76,2.24-5,5-5s5,2.24,5,5v26.17c0,2.76-2.24,5-5,5Z"/><path class="cls-1" d="M25.67,193.09c-2.76,0-5-2.24-5-5v-26.17c0-2.76,2.24-5,5-5s5,2.24,5,5v26.17c0,2.76-2.24,5-5,5Z"/><path class="cls-1" d="M58.85,262.07c-2.76,0-5-2.24-5-5V92.93c0-2.76,2.24-5,5-5s5,2.24,5,5v164.13c0,2.76-2.24,5-5,5Z"/><path class="cls-1" d="M75.44,300.55c-2.76,0-5-2.24-5-5V54.45c0-2.76,2.24-5,5-5s5,2.24,5,5v241.09c0,2.76-2.24,5-5,5Z"/><path class="cls-1" d="M92.04,252.54c-2.76,0-5-2.24-5-5V102.46c0-2.76,2.24-5,5-5s5,2.24,5,5V247.54c0,2.76-2.24,5-5,5Z"/><path class="cls-1" d="M108.63,193.09c-2.76,0-5-2.24-5-5v-26.17c0-2.76,2.24-5,5-5s5,2.24,5,5v26.17c0,2.76-2.24,5-5,5Z"/><path class="cls-1" d="M125.22,193.09c-2.76,0-5-2.24-5-5v-26.17c0-2.76,2.24-5,5-5s5,2.24,5,5v26.17c0,2.76-2.24,5-5,5Z"/><path class="cls-1" d="M42.26,205.91c-2.76,0-5-2.24-5-5v-51.82c0-2.76,2.24-5,5-5s5,2.24,5,5v51.82c0,2.76-2.24,5-5,5Z"/><path class="cls-1" d="M158.41,262.07c-2.76,0-5-2.24-5-5V92.93c0-2.76,2.24-5,5-5s5,2.24,5,5v164.13c0,2.76-2.24,5-5,5Z"/><path class="cls-1" d="M175,300.55c-2.76,0-5-2.24-5-5V54.45c0-2.76,2.24-5,5-5s5,2.24,5,5v241.09c0,2.76-2.24,5-5,5Z"/><path class="cls-1" d="M191.59,252.54c-2.76,0-5-2.24-5-5V102.46c0-2.76,2.24-5,5-5s5,2.24,5,5V247.54c0,2.76-2.24,5-5,5Z"/><path class="cls-1" d="M208.19,193.09c-2.76,0-5-2.24-5-5v-26.17c0-2.76,2.24-5,5-5s5,2.24,5,5v26.17c0,2.76-2.24,5-5,5Z"/><path class="cls-1" d="M224.78,193.09c-2.76,0-5-2.24-5-5v-26.17c0-2.76,2.24-5,5-5s5,2.24,5,5v26.17c0,2.76-2.24,5-5,5Z"/><path class="cls-1" d="M141.81,205.91c-2.76,0-5-2.24-5-5v-51.82c0-2.76,2.24-5,5-5s5,2.24,5,5v51.82c0,2.76-2.24,5-5,5Z"/><path class="cls-1" d="M257.96,262.07c-2.76,0-5-2.24-5-5V92.93c0-2.76,2.24-5,5-5s5,2.24,5,5v164.13c0,2.76-2.24,5-5,5Z"/><path class="cls-1" d="M274.56,300.55c-2.76,0-5-2.24-5-5V54.45c0-2.76,2.24-5,5-5s5,2.24,5,5v241.09c0,2.76-2.24,5-5,5Z"/><path class="cls-1" d="M291.15,252.54c-2.76,0-5-2.24-5-5V102.46c0-2.76,2.24-5,5-5s5,2.24,5,5V247.54c0,2.76-2.24,5-5,5Z"/><path class="cls-1" d="M307.74,193.09c-2.76,0-5-2.24-5-5v-26.17c0-2.76,2.24-5,5-5s5,2.24,5,5v26.17c0,2.76-2.24,5-5,5Z"/><path class="cls-1" d="M324.33,193.09c-2.76,0-5-2.24-5-5v-26.17c0-2.76,2.24-5,5-5s5,2.24,5,5v26.17c0,2.76-2.24,5-5,5Z"/><path class="cls-1" d="M241.37,205.91c-2.76,0-5-2.24-5-5v-51.82c0-2.76,2.24-5,5-5s5,2.24,5,5v51.82c0,2.76-2.24,5-5,5Z"/></g><g><path class="cls-3" d="M430.53,231.6l-34-44.54c-2.21-2.89-3.06-4.59-3.06-6.8v-.34c0-3.4,2.21-5.44,5.78-5.44h7.14c15.47,0,23.29-6.63,23.29-19.89v-7.65c0-13.26-7.82-20.06-23.12-20.06h-25.33v102.85c0,2.55-1.7,4.25-4.42,4.25h-5.44c-2.72,0-4.42-1.7-4.42-4.25V122.63c0-4.76,3.06-7.65,7.82-7.65h31.79c24.31,0,37.23,11.22,37.23,32.3v7.31c0,19.21-10.71,29.58-31.28,31.11l29.75,38.25c2.72,3.57,1.53,7.82-1.7,9.86-3.23,2.21-7.31,1.36-10.03-2.21Z"/><path class="cls-3" d="M458.75,203.89v-23.97c0-21.08,13.26-32.3,37.57-32.3s37.23,10.71,37.23,31.45v12.24c0,3.57-1.7,5.27-5.27,5.27h-55.42v8.5c0,13.43,7.82,19.55,24.31,19.55,14.62,0,21.76-4.25,21.76-13.09v-1.02c0-1.53,.68-2.21,2.21-2.21h8.84c1.53,0,2.38,.85,2.38,2.21v1.19c0,16.15-11.39,24.14-35.19,24.14-25.16,0-38.42-11.05-38.42-31.96Zm14.11-25.5v7.14h46.92v-7.14c0-13.43-7.65-19.72-23.46-19.72s-23.46,6.29-23.46,19.72Z"/><path class="cls-3" d="M628.91,198.79v4.08c0,21.59-13.94,32.98-39.44,32.98s-38.93-10.03-38.93-31.11v-5.1c0-2.04,1.02-3.4,3.06-3.4h7.48c2.04,0,3.06,1.36,3.06,3.23v5.1c0,13.6,7.82,19.72,25.33,19.72s25.5-5.95,25.5-20.4v-3.91c0-12.75-5.61-15.13-16.49-17.17l-20.74-3.91c-16.15-3.06-26.01-7.99-26.01-29.07v-3.91c0-21.59,13.09-32.81,37.91-32.81s37.74,10.03,37.74,30.94v4.08c0,2.04-1.02,3.4-3.06,3.4h-7.48c-2.04,0-3.06-1.36-3.06-3.4v-4.08c0-13.26-7.31-19.38-24.14-19.38s-24.14,5.95-24.14,20.23v3.74c0,12.75,5.61,15.13,16.15,17.17l20.74,3.91c16.32,3.06,26.52,8.16,26.52,29.07Z"/><path class="cls-3" d="M718.67,153.74v74.97c0,3.91-2.21,6.46-6.29,6.46h-.51c-3.91,0-6.12-2.55-6.12-6.46v-4.08c-5.27,7.31-14.11,11.22-25.33,11.22-20.74,0-33.66-12.24-33.66-33.66v-48.45c0-2.55,1.7-4.25,4.25-4.25h5.78c2.38,0,4.08,1.7,4.08,4.25v48.45c0,14.28,7.65,21.93,21.76,21.93s21.93-7.65,21.93-21.93v-48.45c0-2.55,1.7-4.25,4.08-4.25h5.78c2.55,0,4.25,1.7,4.25,4.25Z"/><path class="cls-3" d="M734.65,230.58v-4.76c0-2.04,1.53-3.4,3.57-3.4h15.47v-47.6l-14.79-14.79c-2.38-2.38-2.55-5.27-.17-7.65l2.04-2.04c2.38-2.38,5.27-2.21,7.65,.17l11.9,11.9c4.25-9.69,13.94-14.79,28.39-14.79,20.23,0,31.11,9.69,31.11,27.88v6.63c0,3.23-1.87,4.93-5.1,4.93h-3.74c-3.06,0-4.93-1.7-4.93-4.93v-6.63c0-10.71-6.63-16.49-19.04-16.49s-19.21,5.95-19.21,17v46.41h21.42c2.04,0,3.4,1.36,3.4,3.4v4.76c0,2.04-1.36,3.4-3.4,3.4h-51c-2.04,0-3.57-1.36-3.57-3.4Z"/><path class="cls-3" d="M839.88,233.98c-2.04,0-3.4-1.36-3.4-3.4v-4.76c0-2.04,1.36-3.4,3.4-3.4h15.47v-58.82h-22.61c-2.04,0-3.4-1.36-3.4-3.4v-4.76c0-2.04,1.36-3.4,3.4-3.4h22.61v-14.62c0-15.98,10.88-24.31,31.45-24.31s30.77,7.48,30.77,22.61v2.21c0,1.53-.85,2.38-2.38,2.38h-9.01c-1.7,0-2.38-.68-2.38-2.21v-1.87c0-8.16-5.44-12.07-16.83-12.07s-17.34,4.25-17.34,12.58v15.3h39.1c2.21,0,3.57,1.36,3.57,3.4v4.76c0,2.04-1.36,3.4-3.57,3.4h-39.1v58.82h21.25c2.04,0,3.57,1.36,3.57,3.4v4.76c0,2.04-1.53,3.4-3.57,3.4h-51Z"/><path class="cls-3" d="M931.85,227.18V121.78c0-4.25,2.55-6.8,6.8-6.8h62.05c2.72,0,4.25,1.53,4.25,4.08v3.91c0,2.55-1.53,4.08-4.25,4.08h-54.57v40.29h44.88c3.57,0,6.12,2.21,6.12,5.61v.68c0,3.57-2.55,5.78-6.12,5.78h-44.88v42.5h54.57c2.72,0,4.25,1.53,4.25,4.08v3.91c0,2.55-1.53,4.08-4.25,4.08h-62.05c-4.25,0-6.8-2.55-6.8-6.8Z"/><path class="cls-3" d="M1016.17,230.07V121.78c0-4.08,2.55-6.8,6.8-6.8h4.25c4.25,0,5.78,1.36,7.48,5.27l22.44,53.55,22.44-53.55c1.7-3.91,3.23-5.27,7.65-5.27h4.08c4.25,0,6.8,2.72,6.8,6.8v108.29c0,2.38-1.53,3.91-3.74,3.91h-5.44c-2.38,0-3.91-1.53-3.91-3.91v-91.29l-22.95,53.04c-1.19,2.55-2.72,3.91-5.1,3.91-2.21,0-3.91-1.36-4.93-3.91l-23.12-53.38v91.63c0,2.38-1.36,3.91-3.74,3.91h-5.27c-2.21,0-3.74-1.53-3.74-3.91Z"/><path class="cls-3" d="M1110.51,197.26v-45.9c0-24.65,14.62-38.25,40.63-38.25,27.37,0,39.44,11.56,39.44,35.36v1.87c0,1.87-1.02,3.06-2.89,3.06h-7.99c-1.87,0-2.89-1.02-2.89-2.89v-2.04c0-15.98-6.97-23.63-25.67-23.63s-26.35,9.18-26.35,26.18v46.92c0,17.17,8.5,26.18,26.35,26.18s26.01-7.82,26.01-24.65v-13.43h-21.93c-3.23,0-5.27-1.87-5.27-4.76v-2.55c0-3.06,2.04-4.76,5.27-4.76h30.26c3.4,0,5.27,1.87,5.27,5.27v20.23c0,24.31-13.6,36.38-39.61,36.38s-40.63-13.77-40.63-38.59Z"/></g></g></g></svg>